<?xml version="1.0" encoding="utf-8"?>
<!-- Generator: Adobe Illustrator 15.1.0, SVG Export Plug-In . SVG Version: 6.00 Build 0)  -->
<!DOCTYPE svg PUBLIC "-//W3C//DTD SVG 1.1//EN" "http://www.w3.org/Graphics/SVG/1.1/DTD/svg11.dtd">
<svg version="1.1"
	 id="svg1325" sodipodi:version="0.32" sodipodi:docbase="D:\Wikipédia\Atelier graphique" sodipodi:docname="Cc-by_new.svg" xmlns:inkscape="http://www.inkscape.org/namespaces/inkscape" xmlns:sodipodi="http://inkscape.sourceforge.net/DTD/sodipodi-0.dtd" xmlns:svg="http://www.w3.org/2000/svg" xmlns:rdf="http://www.w3.org/1999/02/22-rdf-syntax-ns#" xmlns:cc="http://web.resource.org/cc/" xmlns:dc="http://purl.org/dc/elements/1.1/" inkscape:version="0.42.2"
	 xmlns="http://www.w3.org/2000/svg" xmlns:xlink="http://www.w3.org/1999/xlink" x="0px" y="0px" width="64px" height="64px"
	 viewBox="0 0 64 64" enable-background="new 0 0 64 64" xml:space="preserve">
<sodipodi:namedview  fill="#000000" id="base" inkscape:current-layer="layer3" inkscape:window-y="-4" inkscape:window-x="-4" inkscape:cy="49.938786" inkscape:zoom="1.0000000" inkscape:window-width="1280" inkscape:pageshadow="2" borderopacity="1.0" bordercolor="#666666" inkscape:window-height="1005" inkscape:cx="247.22172" inkscape:pageopacity="0.0" pagecolor="#ffffff">
	</sodipodi:namedview>
<g id="layer3" inkscape:label="Dessin" inkscape:groupmode="layer">
	<path id="path1334" fill="#939BA0" d="M15.594-0.001C6.952,0.218,0,7.305,0,15.999c0,8.832,7.168,16,16,16s16-7.168,16-16
		s-7.168-16-16-16C15.862-0.001,15.731-0.005,15.594-0.001z M15.578,2.749c0.142-0.004,0.279,0,0.422,0
		c7.314,0,13.25,5.936,13.25,13.25S23.314,29.249,16,29.249S2.75,23.312,2.75,15.999C2.75,8.828,8.461,2.974,15.578,2.749z"/>
	<g id="g6525">
		
			<path id="path2838" sodipodi:cx="32.062500" sodipodi:type="arc" sodipodi:cy="15.750000" sodipodi:rx="4.6250000" sodipodi:ry="4.6250000" fill="#939BA0" d="
			M18.312,7.966c0,1.277-1.035,2.312-2.312,2.312s-2.312-1.035-2.312-2.312c0-1.277,1.035-2.312,2.312-2.312
			S18.312,6.689,18.312,7.966z"/>
		<path id="path3572" sodipodi:nodetypes="ccccssccssccc" fill="#939BA0" d="M13.607,26.343h4.785v-7.689h1.446c0,0,0-5.495,0-6.36
			c-0.001-0.228,0.021-0.683-0.311-1.014s-0.777-0.311-1.013-0.31c-0.236,0-4.794,0-5.03,0c-0.236-0.001-0.682-0.021-1.013,0.31
			s-0.309,0.786-0.311,1.014c0,0.865,0,6.36,0,6.36h1.446V26.343z"/>
	</g>
</g>
</svg>
