<?xml version="1.0" encoding="utf-8"?>
<!-- Generator: Adobe Illustrator 15.1.0, SVG Export Plug-In  -->
<!DOCTYPE svg PUBLIC "-//W3C//DTD SVG 1.1//EN" "http://www.w3.org/Graphics/SVG/1.1/DTD/svg11.dtd" [
	<!ENTITY ns_flows "http://ns.adobe.com/Flows/1.0/">
]>
<svg version="1.1"
	 xmlns="http://www.w3.org/2000/svg" xmlns:xlink="http://www.w3.org/1999/xlink" xmlns:a="http://ns.adobe.com/AdobeSVGViewerExtensions/3.0/"
	 x="0px" y="0px" width="50px" height="2000px" viewBox="0 0 50 2000" overflow="visible" enable-background="new 0 0 50 2000"
	 xml:space="preserve">
<defs>
</defs>
<path fill="#ECC004" d="M7.447,7.01c0.469-0.204,0.958-0.356,1.449-0.459L8.874,0C7.181,0.024,5.602,0.513,4.26,1.347l2.921,5.787
	C7.269,7.091,7.356,7.049,7.447,7.01z"/>
<path fill="#ECC004" d="M6.516,7.495L2.754,2.521C1.562,3.672,0.684,5.15,0.27,6.812l5.013,1.922
	C5.529,8.253,5.952,7.847,6.516,7.495z"/>
<path fill="#ECC004" d="M12.848,7.578c1.136,2.33-1.478,2.273-0.399,4.092c0.504,0.844,2.082,1.946,3.633,2.884
	c1.201-1.53,1.921-3.459,1.921-5.556c0-1.833-0.547-3.535-1.487-4.956l-3.915,3.174C12.694,7.327,12.781,7.444,12.848,7.578z"/>
<path fill="#ECC004" d="M12.025,6.767l3.252-4.219c-1.191-1.16-2.702-1.993-4.389-2.352L9.643,6.433
	C10.55,6.34,11.402,6.439,12.025,6.767z"/>
<path fill="#DB2339" d="M10.688,14.169c-1.819-1.647-4.035-0.456-5.171-2.671c-0.404-0.786-0.54-1.463-0.457-2.051L0.003,8.825
	C0.003,8.883,0,8.94,0,8.999C0,13.969,4.031,18,9.001,18c1.378,0,2.682-0.311,3.849-0.863
	C12.253,16.064,11.493,14.899,10.688,14.169z M8.311,17.156c-0.541,0-0.979-0.438-0.979-0.978c0-0.541,0.438-0.976,0.979-0.976
	c0.539,0,0.977,0.436,0.977,0.976C9.288,16.717,8.85,17.156,8.311,17.156z"/>
<path fill="#FCB813" d="M14.331,110.694C14.331,110.694,14.331,110.694,14.331,110.694c-0.106-0.108-0.254-0.173-0.417-0.173
	c-0.164,0-0.312,0.067-0.419,0.176l-1.845,1.845c-0.109,0.107-0.178,0.256-0.178,0.422c0,0.164,0.067,0.312,0.177,0.42h-0.001
	l2.004,2.004c0,0,0.104,0.106,0.117,0.119c0.359,0.358,0.835,0.556,1.343,0.556l0,0c0.508,0,0.986-0.198,1.344-0.557
	c0.36-0.359,0.558-0.836,0.558-1.345l0,0c0-0.508-0.198-0.986-0.558-1.345C16.455,112.816,14.941,111.304,14.331,110.694z"/>
<path fill="#FCB813" d="M2.909,108.133v-7.542l0,0v-0.001c0-0.325-0.263-0.589-0.588-0.589l0,0H0.596c-0.002,0-0.004,0-0.006,0
	C0.264,100,0,100.264,0,100.59l0,0l0,0v8.274l0,0v7.542l0,0v0c0,0.326,0.264,0.59,0.589,0.591l0,0h1.725c0.001,0,0.003,0,0.005,0
	c0.326,0,0.589-0.264,0.589-0.59v0l0,0V108.133L2.909,108.133z"/>
<path fill="#FCB813" d="M11.457,100.697c0.074-0.074,0.119-0.176,0.119-0.289c0-0.226-0.182-0.408-0.408-0.408h-0.002l0,0H5.716
	c-0.003,0-0.006,0-0.01,0c-0.326,0-0.59,0.264-0.59,0.59c0,0.006,0,0.013,0,0.018v5.444l0,0c0,0.226,0.183,0.408,0.408,0.408
	c0.114,0,0.217-0.046,0.292-0.122L11.457,100.697L11.457,100.697z"/>
<path fill="#FCB813" d="M5.813,110.66c-0.074-0.074-0.176-0.119-0.289-0.119c-0.226,0-0.409,0.183-0.409,0.408l0,0.001l0,0v5.45
	c0,0.003,0,0.006,0,0.01c0,0.325,0.264,0.589,0.59,0.589c0.006,0,0.012,0,0.018,0h5.443l0,0c0.226,0,0.408-0.183,0.408-0.409
	c0-0.114-0.046-0.216-0.122-0.291L5.813,110.66L5.813,110.66z"/>
<path fill="#FCB813" d="M29.624,100.697c0.075-0.074,0.121-0.176,0.121-0.289c0-0.226-0.184-0.408-0.409-0.408c0,0-0.001,0-0.002,0
	l0,0h-5.45c-0.002,0-0.006,0-0.01,0c-0.325,0-0.589,0.264-0.589,0.59c0,0.006,0,0.013,0,0.018v5.444l0,0
	c0,0.226,0.184,0.408,0.408,0.408c0.114,0,0.218-0.046,0.291-0.122L29.624,100.697L29.624,100.697z"/>
<path fill="#FCB813" d="M23.982,110.66c-0.075-0.074-0.176-0.119-0.289-0.119c-0.226,0-0.408,0.183-0.408,0.408v0.001l0,0v5.45
	c0,0.003,0,0.006,0,0.01c0,0.325,0.264,0.589,0.589,0.589c0.006,0,0.013,0,0.018,0h5.444l0,0c0.226,0,0.408-0.183,0.408-0.409
	c0-0.114-0.048-0.216-0.123-0.291L23.982,110.66L23.982,110.66z"/>
<path fill="#E21B23" d="M29.429,104.203c-0.113,0-0.215,0.046-0.29,0.121l-3.764,3.764h0.001c-0.108,0.107-0.175,0.255-0.175,0.419
	c0,0.163,0.066,0.31,0.174,0.417h-0.001l3.76,3.76c0.074,0.078,0.18,0.127,0.296,0.127c0.225,0,0.408-0.183,0.408-0.409l0,0l0,0
	v-7.789l0,0c0,0,0-0.001,0-0.002C29.837,104.385,29.653,104.203,29.429,104.203z"/>
<path fill="#E21B23" d="M21.095,106.621c0-0.164-0.067-0.311-0.174-0.418l0,0l-1.3-1.301c-0.531-0.531-1.237-0.824-1.988-0.824
	c-0.751,0-1.458,0.293-1.988,0.824c-0.531,0.532-0.825,1.237-0.825,1.989s0.294,1.458,0.825,1.989c0,0.001,2.375,2.372,2.375,2.372
	c0.392,0.392,0.695,0.849,0.902,1.359c0.2,0.493,0.301,1.013,0.301,1.547l0,0c0,0.533-0.101,1.052-0.301,1.545
	c-0.055,0.134-0.117,0.265-0.184,0.392c-0.057,0.091-0.09,0.198-0.09,0.313c0,0.325,0.264,0.588,0.588,0.589V117h1.86V106.621
	L21.095,106.621z"/>
<path fill="#939BA0" d="M21.096,100.59L21.096,100.59L21.096,100.59c0-0.326-0.264-0.59-0.59-0.59c-0.004,0-0.008,0-0.011,0h-4.972
	l0,0h0c-0.167,0-0.317,0.069-0.423,0.18l-7.896,7.895c-0.116,0.108-0.188,0.261-0.188,0.432c0,0.169,0.072,0.322,0.185,0.429
	l2.034,2.035c0.108,0.115,0.262,0.188,0.433,0.188c0.164,0,0.312-0.066,0.418-0.174l0,0l2.465-2.465
	c0.116-0.108,0.188-0.261,0.188-0.432c0-0.043-0.004-0.086-0.014-0.127c-0.076-0.348-0.113-0.704-0.113-1.065l0,0
	c0-0.651,0.124-1.287,0.368-1.889c0.252-0.624,0.623-1.182,1.102-1.661c0.479-0.479,1.039-0.851,1.662-1.103
	c0.602-0.244,1.237-0.368,1.889-0.368c0.651,0,1.287,0.124,1.888,0.368c0.228,0.092,0.447,0.2,0.656,0.324
	c0.094,0.063,0.208,0.1,0.329,0.1c0.326,0,0.589-0.263,0.59-0.588l0,0V100.59z"/>
<path fill="#E21B23" d="M12.5,300C5.597,300,0,305.597,0,312.5S5.597,325,12.5,325S25,319.403,25,312.5S19.403,300,12.5,300z"/>
<path fill="#BCBFC1" d="M12.5,200C5.597,200,0,205.597,0,212.5S5.597,225,12.5,225S25,219.403,25,212.5S19.403,200,12.5,200z"/>
<path fill="#FFFFFF" d="M12.5,203.486L4.486,211.5h2.003v8.014H18.51V211.5h2.003L12.5,203.486z M16.506,217.51h-3.005v-3.005
	h-2.003v3.005H8.493v-7.184l4.007-2.833l4.006,2.833V217.51z"/>
<path fill="#FFFFFF" d="M11.986,303.486L3.972,311.5h2.003v8.014h12.021V311.5H20L11.986,303.486z M15.993,317.51h-3.005v-3.005
	h-2.003v3.005H7.979v-7.184l4.007-2.833l4.006,2.833V317.51z"/>
<path fill-rule="evenodd" clip-rule="evenodd" fill="#B2B6B7" d="M2.353,550C1.055,550,0,551.055,0,552.353v6.589
	c0,1.299,1.055,2.353,2.353,2.353h5.177l3.765,3.294v-3.294h2.354c1.298,0,2.353-1.054,2.353-2.353v-6.589
	c0-1.298-1.055-2.353-2.353-2.353H2.353z M2.353,553.294h11.295v0.941H2.353V553.294z M2.353,555.177h11.295v0.94H2.353V555.177z
	 M2.353,557.059h11.295V558H2.353V557.059z"/>
<circle fill="none" stroke="#ADB1B2" stroke-miterlimit="10" cx="4" cy="803" r="3"/>
<circle fill="none" stroke="#78161C" stroke-miterlimit="10" cx="4" cy="1003" r="3"/>
<circle fill="none" stroke="#78161C" stroke-miterlimit="10" cx="4" cy="1203" r="3"/>
<path fill="#F1B13A" d="M5.654,1203c0,0.913-0.741,1.654-1.655,1.654c-0.914,0-1.654-0.741-1.654-1.654
	c0-0.914,0.741-1.654,1.654-1.654C4.914,1201.346,5.654,1202.086,5.654,1203L5.654,1203z"/>
<path fill="#F1B13A" d="M2.757,1203.481c0,0,0.171-0.408,0.562-0.512c0.39-0.103,0.68-0.078,0.907,0.002L4.14,1203.3l0.272-0.217
	l0.279,0.184l-0.115-0.312l0.249-0.212H4.498l-0.141-0.305l-0.081,0.312c0,0-0.617,0.012-0.798,0.136c0,0,0.196-0.265,0.692-0.26
	l0.16-0.611l0.244,0.589h0.624l-0.461,0.386c0,0,0.202,0.469,0.179,0.635c0,0-0.295-0.294-0.496-0.378l-0.499,0.413l0.148-0.607
	C4.07,1203.053,3.208,1202.839,2.757,1203.481z"/>
<path fill-rule="evenodd" clip-rule="evenodd" fill="#B2B6B7" d="M4.648,700c-0.284,0-0.516,0.23-0.516,0.517v0.517H0v5.163h4.133
	v8.254H2.584c-0.287,0-0.517,0.229-0.517,0.517V716h5.159v-1.033c0-0.287-0.234-0.517-0.516-0.517H5.164v-8.254h3.609l2.062-2.456
	l-2.062-2.707H5.164v-0.517C5.164,700.23,4.93,700,4.648,700z"/>
<path fill-rule="evenodd" clip-rule="evenodd" fill="#B2B6B7" d="M1.548,650C0.692,650,0,650.692,0,651.548v6.68l7.492,7.32
	c0.607,0.603,1.589,0.603,2.198,0l5.854-5.825c0.607-0.603,0.607-1.582,0-2.183l-7.759-7.53L7.774,650l-0.004,0.01L1.548,650z
	 M4.033,654.033c-0.504,0.504-1.323,0.504-1.826,0c-0.504-0.504-0.504-1.323,0-1.826c0.503-0.504,1.322-0.504,1.826,0
	C4.537,652.71,4.537,653.529,4.033,654.033z M9.407,662.523l-5.111-5.111l0.367-0.362l5.11,5.105L9.407,662.523z M10.654,661.275
	l-5.111-5.11l0.367-0.362l5.106,5.109L10.654,661.275z M11.901,660.028l-5.11-5.106l0.362-0.369l5.111,5.113L11.901,660.028z"/>
<path fill-rule="evenodd" clip-rule="evenodd" fill="#B2B6B7" d="M0,604.8v10.134C0,615.52,0.48,616,1.067,616h10.667
	c0.586,0,1.066-0.48,1.066-1.066v-13.867c0-0.586-0.48-1.066-1.066-1.066H4.8v4.8H0z M3.733,600L0,603.733h3.733V600z"/>
<path fill-rule="evenodd" clip-rule="evenodd" fill="#B2B6B7" d="M0.41,513.66c-0.531,0.527-0.546,1.379-0.047,1.93l0.023,0.023
	l0.023,0.023c0.551,0.499,1.402,0.484,1.93-0.047l4.602-5.148c-0.832-0.526-1.181-0.847-1.66-1.562L0.41,513.66z M5.177,505.176
	c0,2.856,2.32,5.177,5.177,5.177c2.86,0,5.176-2.32,5.176-5.177c0-2.86-2.315-5.176-5.176-5.176
	C7.497,500,5.177,502.315,5.177,505.176z M6.589,505.176c0-2.079,1.685-3.764,3.765-3.764c2.079,0,3.764,1.685,3.764,3.764
	c0,2.08-1.685,3.765-3.764,3.765C8.273,508.94,6.589,507.256,6.589,505.176z"/>
<path fill-rule="evenodd" clip-rule="evenodd" fill="#B2B6B7" d="M1.067,450C0.48,450,0,450.48,0,451.066v13.867
	C0,465.52,0.48,466,1.067,466h1.066v-16H1.067z M2.667,466H12.8c0.586,0,1.067-0.48,1.067-1.066v-13.867
	c0-0.586-0.48-1.066-1.067-1.066h-1.066v8.533l-1.616-1.6l-1.584,1.6V450H2.667V466z"/>
<path fill-rule="evenodd" clip-rule="evenodd" fill="#B7BBBC" d="M0,1403.467v8.666c0,0.478,0.391,0.867,0.867,0.867h8.667
	c0.477,0,0.867-0.39,0.867-0.867v-11.266c0-0.478-0.391-0.867-0.867-0.867H3.467L0,1403.467z M3.901,1401.301h4.766
	c0.238,0,0.433,0.194,0.433,0.432v9.533c0,0.239-0.195,0.434-0.433,0.434H1.733c-0.238,0-0.434-0.194-0.434-0.434v-7.365h2.601
	V1401.301z"/>
<path fill-rule="evenodd" clip-rule="evenodd" fill="#78161C" d="M0,1603.467v8.666c0,0.478,0.391,0.867,0.867,0.867h8.667
	c0.477,0,0.867-0.39,0.867-0.867v-11.266c0-0.478-0.391-0.867-0.867-0.867H3.467L0,1603.467z M3.901,1601.301h4.766
	c0.238,0,0.433,0.194,0.433,0.432v9.533c0,0.239-0.195,0.434-0.433,0.434H1.733c-0.238,0-0.434-0.194-0.434-0.434v-7.365h2.601
	V1601.301z"/>
<path fill-rule="evenodd" clip-rule="evenodd" fill="none" stroke="#B7BBBC" stroke-miterlimit="10" d="M2.913,1800
	c-1.056,0-1.913,0.857-1.913,1.912v5.354c0,1.055,0.857,1.91,1.913,1.91h4.205l3.059,2.676v-2.676h1.912
	c1.057,0,1.913-0.855,1.913-1.91v-5.354c0-1.055-0.856-1.912-1.913-1.912H2.913z"/>
<polygon fill-rule="evenodd" clip-rule="evenodd" fill="#B2B6B7" points="8,400 10.06,405.86 16,406.11 11.335,409.985 12.945,416 
	8,412.53 3.055,416 4.665,409.985 0,406.11 5.94,405.86 "/>
</svg>
