<?xml version="1.0" encoding="utf-8"?>
<!-- Generator: Adobe Illustrator 15.1.0, SVG Export Plug-In  -->
<!DOCTYPE svg PUBLIC "-//W3C//DTD SVG 1.1//EN" "http://www.w3.org/Graphics/SVG/1.1/DTD/svg11.dtd" [
	<!ENTITY ns_flows "http://ns.adobe.com/Flows/1.0/">
]>
<svg version="1.1"
	 xmlns="http://www.w3.org/2000/svg" xmlns:xlink="http://www.w3.org/1999/xlink" xmlns:a="http://ns.adobe.com/AdobeSVGViewerExtensions/3.0/"
	 x="0px" y="0px" width="50px" height="1000px" viewBox="0 0 50 1000" overflow="visible" enable-background="new 0 0 50 1000"
	 xml:space="preserve">
<defs>
</defs>
<path fill="#ECC004" d="M7.447,7.01c0.469-0.204,0.958-0.356,1.449-0.459L8.874,0C7.181,0.024,5.602,0.513,4.26,1.347l2.921,5.787
	C7.269,7.091,7.356,7.049,7.447,7.01z"/>
<path fill="#ECC004" d="M6.516,7.495L2.754,2.521C1.562,3.672,0.684,5.15,0.27,6.812l5.013,1.922
	C5.529,8.253,5.952,7.847,6.516,7.495z"/>
<path fill="#ECC004" d="M12.848,7.578c1.136,2.33-1.478,2.273-0.399,4.092c0.504,0.844,2.082,1.946,3.633,2.884
	c1.201-1.53,1.921-3.459,1.921-5.556c0-1.833-0.547-3.535-1.487-4.956l-3.915,3.174C12.694,7.327,12.781,7.444,12.848,7.578z"/>
<path fill="#ECC004" d="M12.025,6.767l3.252-4.219c-1.191-1.16-2.702-1.993-4.389-2.352L9.643,6.433
	C10.55,6.34,11.402,6.439,12.025,6.767z"/>
<path fill="#DB2339" d="M10.688,14.169c-1.819-1.647-4.035-0.456-5.171-2.671c-0.404-0.786-0.54-1.463-0.457-2.051L0.003,8.825
	C0.003,8.883,0,8.94,0,8.999C0,13.969,4.031,18,9.001,18c1.378,0,2.682-0.311,3.849-0.863
	C12.253,16.064,11.493,14.899,10.688,14.169z M8.311,17.156c-0.541,0-0.979-0.438-0.979-0.978c0-0.541,0.438-0.976,0.979-0.976
	c0.539,0,0.977,0.436,0.977,0.976C9.288,16.717,8.85,17.156,8.311,17.156z"/>
<path fill="#FCB813" d="M14.331,110.694C14.331,110.694,14.331,110.694,14.331,110.694c-0.106-0.108-0.254-0.173-0.417-0.173
	c-0.164,0-0.312,0.067-0.419,0.176l-1.845,1.845c-0.109,0.107-0.178,0.256-0.178,0.422c0,0.164,0.067,0.312,0.177,0.42h-0.001
	l2.004,2.004c0,0,0.104,0.106,0.117,0.119c0.359,0.358,0.835,0.556,1.343,0.556l0,0c0.508,0,0.986-0.198,1.344-0.557
	c0.36-0.359,0.558-0.836,0.558-1.345l0,0c0-0.508-0.198-0.986-0.558-1.345C16.455,112.816,14.941,111.304,14.331,110.694z"/>
<path fill="#FCB813" d="M2.909,108.133v-7.542l0,0v-0.001c0-0.325-0.263-0.589-0.588-0.589l0,0H0.596c-0.002,0-0.004,0-0.006,0
	C0.264,100,0,100.264,0,100.59l0,0l0,0v8.274l0,0v7.542l0,0v0c0,0.326,0.264,0.59,0.589,0.591l0,0h1.725c0.001,0,0.003,0,0.005,0
	c0.326,0,0.589-0.264,0.589-0.59v0l0,0V108.133L2.909,108.133z"/>
<path fill="#FCB813" d="M11.457,100.697c0.074-0.074,0.119-0.176,0.119-0.289c0-0.226-0.182-0.408-0.408-0.408h-0.002l0,0H5.716
	c-0.003,0-0.006,0-0.01,0c-0.326,0-0.59,0.264-0.59,0.59c0,0.006,0,0.013,0,0.018v5.444l0,0c0,0.226,0.183,0.408,0.408,0.408
	c0.114,0,0.217-0.046,0.292-0.122L11.457,100.697L11.457,100.697z"/>
<path fill="#FCB813" d="M5.813,110.66c-0.074-0.074-0.176-0.119-0.289-0.119c-0.226,0-0.409,0.183-0.409,0.408l0,0.001l0,0v5.45
	c0,0.003,0,0.006,0,0.01c0,0.325,0.264,0.589,0.59,0.589c0.006,0,0.012,0,0.018,0h5.443l0,0c0.226,0,0.408-0.183,0.408-0.409
	c0-0.114-0.046-0.216-0.122-0.291L5.813,110.66L5.813,110.66z"/>
<path fill="#FCB813" d="M29.624,100.697c0.075-0.074,0.121-0.176,0.121-0.289c0-0.226-0.184-0.408-0.409-0.408c0,0-0.001,0-0.002,0
	l0,0h-5.45c-0.002,0-0.006,0-0.01,0c-0.325,0-0.589,0.264-0.589,0.59c0,0.006,0,0.013,0,0.018v5.444l0,0
	c0,0.226,0.184,0.408,0.408,0.408c0.114,0,0.218-0.046,0.291-0.122L29.624,100.697L29.624,100.697z"/>
<path fill="#FCB813" d="M23.982,110.66c-0.075-0.074-0.176-0.119-0.289-0.119c-0.226,0-0.408,0.183-0.408,0.408v0.001l0,0v5.45
	c0,0.003,0,0.006,0,0.01c0,0.325,0.264,0.589,0.589,0.589c0.006,0,0.013,0,0.018,0h5.444l0,0c0.226,0,0.408-0.183,0.408-0.409
	c0-0.114-0.048-0.216-0.123-0.291L23.982,110.66L23.982,110.66z"/>
<path fill="#E21B23" d="M29.429,104.203c-0.113,0-0.215,0.046-0.29,0.121l-3.764,3.764h0.001c-0.108,0.107-0.175,0.255-0.175,0.419
	c0,0.163,0.066,0.31,0.174,0.417h-0.001l3.76,3.76c0.074,0.078,0.18,0.127,0.296,0.127c0.225,0,0.408-0.183,0.408-0.409l0,0l0,0
	v-7.789l0,0c0,0,0-0.001,0-0.002C29.837,104.385,29.653,104.203,29.429,104.203z"/>
<path fill="#E21B23" d="M21.095,106.621c0-0.164-0.067-0.311-0.174-0.418l0,0l-1.3-1.301c-0.531-0.531-1.237-0.824-1.988-0.824
	c-0.751,0-1.458,0.293-1.988,0.824c-0.531,0.532-0.825,1.237-0.825,1.989s0.294,1.458,0.825,1.989c0,0.001,2.375,2.372,2.375,2.372
	c0.392,0.392,0.695,0.849,0.902,1.359c0.2,0.493,0.301,1.013,0.301,1.547l0,0c0,0.533-0.101,1.052-0.301,1.545
	c-0.055,0.134-0.117,0.265-0.184,0.392c-0.057,0.091-0.09,0.198-0.09,0.313c0,0.325,0.264,0.588,0.588,0.589V117h1.86V106.621
	L21.095,106.621z"/>
<path fill="#939BA0" d="M21.096,100.59L21.096,100.59L21.096,100.59c0-0.326-0.264-0.59-0.59-0.59c-0.004,0-0.008,0-0.011,0h-4.972
	l0,0h0c-0.167,0-0.317,0.069-0.423,0.18l-7.896,7.895c-0.116,0.108-0.188,0.261-0.188,0.432c0,0.169,0.072,0.322,0.185,0.429
	l2.034,2.035c0.108,0.115,0.262,0.188,0.433,0.188c0.164,0,0.312-0.066,0.418-0.174l0,0l2.465-2.465
	c0.116-0.108,0.188-0.261,0.188-0.432c0-0.043-0.004-0.086-0.014-0.127c-0.076-0.348-0.113-0.704-0.113-1.065l0,0
	c0-0.651,0.124-1.287,0.368-1.889c0.252-0.624,0.623-1.182,1.102-1.661c0.479-0.479,1.039-0.851,1.662-1.103
	c0.602-0.244,1.237-0.368,1.889-0.368c0.651,0,1.287,0.124,1.888,0.368c0.228,0.092,0.447,0.2,0.656,0.324
	c0.094,0.063,0.208,0.1,0.329,0.1c0.326,0,0.589-0.263,0.59-0.588l0,0V100.59z"/>
<path fill="#8B9092" d="M12.5,200C5.597,200,0,205.597,0,212.5S5.597,225,12.5,225S25,219.403,25,212.5S19.403,200,12.5,200z"/>
<path fill-rule="evenodd" clip-rule="evenodd" fill="#FFFFFF" d="M18.286,207.453l-2.105-1.283v-1.171h2.105V207.453z
	 M20.098,210.761l-7.616-4.419l-7.59,4.406l-0.65-0.964l8.24-4.775l8.274,4.816L20.098,210.761z M6.134,218.709v-7.674h0.021
	l6.367-3.65l6.368,3.65h0.017v7.674h-3.858v-5.775H9.993v5.775H6.134z"/>
<path fill="#E21B23" d="M12.5,300C5.597,300,0,305.597,0,312.5S5.597,325,12.5,325S25,319.403,25,312.5S19.403,300,12.5,300z"/>
<path fill-rule="evenodd" clip-rule="evenodd" fill="#FFFFFF" d="M18.286,307.453l-2.105-1.283v-1.171h2.105V307.453z
	 M20.098,310.761l-7.616-4.419l-7.59,4.406l-0.65-0.964l8.24-4.775l8.274,4.816L20.098,310.761z M6.134,318.709v-7.674h0.021
	l6.367-3.65l6.368,3.65h0.017v7.674h-3.858v-5.775H9.993v5.775H6.134z"/>
<path opacity="0.59" fill="#8B9092" d="M6,400c-3.313,0-6,2.687-6,6c0,3.313,2.687,6,6,6s6-2.687,6-6C12,402.687,9.313,400,6,400z
	 M5.862,402.031c0.199-0.215,0.439-0.323,0.721-0.323c0.226,0,0.426,0.082,0.574,0.234c0.152,0.153,0.229,0.352,0.229,0.583
	c0,0.291-0.1,0.548-0.299,0.771c-0.207,0.225-0.451,0.34-0.72,0.34c-0.224,0-0.42-0.083-0.569-0.242
	c-0.152-0.157-0.229-0.357-0.229-0.602C5.569,402.494,5.669,402.242,5.862,402.031z M7.843,408.677
	c-0.574,0.538-1.324,1.217-1.595,1.37c-0.292,0.169-0.529,0.246-0.731,0.246c-0.198,0-0.368-0.066-0.489-0.199
	c-0.12-0.129-0.18-0.302-0.18-0.51c0-0.533,0.3-1.763,0.916-3.767c0.007-0.02,0.012-0.041,0.017-0.059
	c-0.012,0.005-0.029,0.017-0.045,0.023c-0.049,0.035-0.564,0.464-1.015,0.904l-0.13,0.128l-0.592-0.458l0.152-0.17
	c0.416-0.457,1.167-1.102,1.518-1.301c0.369-0.207,0.683-0.31,0.955-0.31c0.18,0,0.322,0.047,0.433,0.134
	c0.117,0.097,0.177,0.234,0.177,0.393c0,0.066,0,0.205-0.399,1.552c-0.479,1.605-0.612,2.239-0.632,2.479
	c0.105-0.07,0.674-0.578,1.113-0.991l0.146-0.14l0.539,0.526L7.843,408.677z"/>
</svg>
